<?xml version="1.0" encoding="UTF-8" standalone="no"?>
<svg
   width="128"
   height="128"
   version="1.1"
   id="svg22"
   sodipodi:docname="icon.svg"
   inkscape:version="1.2.2 (732a01da63, 2022-12-09)"
   xmlns:inkscape="http://www.inkscape.org/namespaces/inkscape"
   xmlns:sodipodi="http://sodipodi.sourceforge.net/DTD/sodipodi-0.dtd"
   xmlns="http://www.w3.org/2000/svg"
   xmlns:svg="http://www.w3.org/2000/svg">
  <defs
     id="defs26" />
  <sodipodi:namedview
     id="namedview24"
     pagecolor="#ffffff"
     bordercolor="#000000"
     borderopacity="0.25"
     inkscape:showpageshadow="2"
     inkscape:pageopacity="0.0"
     inkscape:pagecheckerboard="0"
     inkscape:deskcolor="#d1d1d1"
     showgrid="false"
     inkscape:zoom="5.6734271"
     inkscape:cx="80.46283"
     inkscape:cy="67.860218"
     inkscape:window-width="3440"
     inkscape:window-height="1377"
     inkscape:window-x="-8"
     inkscape:window-y="-8"
     inkscape:window-maximized="1"
     inkscape:current-layer="svg22" />
  <rect
     width="124"
     height="124"
     x="2"
     y="2"
     fill="#363d52"
     stroke="#212532"
     stroke-width="4"
     rx="14"
     id="rect2"
     style="fill:#000000;fill-opacity:1" />
  <g
     aria-label="St.A"
     id="text917"
     style="font-size:60px;font-family:'Berlin Sans FB';-inkscape-font-specification:'Berlin Sans FB';stroke:#000000;stroke-width:12.094;stroke-linecap:round;stroke-linejoin:round;paint-order:fill markers stroke">
    <path
       d="m 35.415535,85.662506 h -3.75 -3.75 -3.75 -3.75 -3.75 v -3.75 h -3.75 v -3.75 -3.75 h 3.75 3.75 v 3.75 h 3.75 3.75 3.75 3.75 v -3.75 -3.75 -3.75 h -3.75 -3.75 -3.75 -3.75 -3.75 v -3.75 h -3.75 v -3.75 -3.75 -3.75 -3.75 h 3.75 v -3.75 h 3.75 3.75 3.75 3.75 3.75 3.75 v 3.75 h 3.75 v 3.75 3.75 h -3.75 -3.75 v -3.75 h -3.75 -3.75 -3.75 -3.75 v 3.75 3.75 h 3.75 3.75 3.75 3.75 3.75 v 3.75 h 3.75 v 3.75 3.75 3.75 3.75 3.75 h -3.75 v 3.75 z"
       style="font-family:Pixellari;-inkscape-font-specification:Pixellari;fill:#ffffff;stroke:#ffffff;stroke-opacity:0"
       id="path843" />
    <path
       d="m 57.915535,85.662506 h -3.75 v -3.75 h -3.75 v -3.75 -3.75 -3.75 -3.75 -3.75 h -3.75 v -3.75 -3.75 h 3.75 v -3.75 -3.75 -3.75 h 3.75 3.75 v 3.75 3.75 3.75 h 3.75 v 3.75 3.75 h -3.75 v 3.75 3.75 3.75 3.75 h 3.75 v 3.75 3.75 z"
       style="font-family:Pixellari;-inkscape-font-specification:Pixellari;fill:#ffffff;stroke:#ffffff;stroke-opacity:0"
       id="path845" />
    <path
       d="m 72.915535,85.662506 h -3.75 v -3.75 -3.75 h 3.75 3.75 v 3.75 3.75 z"
       style="font-family:Pixellari;-inkscape-font-specification:Pixellari;fill:#ffffff;stroke:#ffffff;stroke-opacity:0"
       id="path847" />
    <path
       d="m 110.41553,85.662506 h -3.75 v -3.75 -3.75 -3.75 -3.75 h -3.75 -3.749995 -3.75 -3.75 v 3.75 3.75 3.75 3.75 h -3.75 -3.75 v -3.75 -3.75 -3.75 -3.75 -3.75 -3.75 -3.75 -3.75 -3.75 h 3.75 v -3.75 h 3.75 v -3.75 h 3.75 3.75 3.749995 3.75 v 3.75 h 3.75 v 3.75 h 3.75 v 3.75 3.75 3.75 3.75 3.75 3.75 3.75 3.75 3.75 z m -7.5,-22.5 h 3.75 v -3.75 -3.75 h -3.75 v -3.75 h -3.749995 -3.75 v 3.75 h -3.75 v 3.75 3.75 h 3.75 3.75 z"
       style="font-family:Pixellari;-inkscape-font-specification:Pixellari;fill:#ffffff;stroke:#ffffff;stroke-opacity:0"
       id="path849" />
  </g>
</svg>
